<?xml version="1.0" standalone="no"?><svg xmlns="http://www.w3.org/2000/svg" viewBox="0 0 1440 320"><path fill="#00000" fill-opacity="1" d="M0,96L26.7,80C53.3,64,107,32,160,48C213.3,64,267,128,320,176C373.3,224,427,256,480,245.3C533.3,235,587,181,640,176C693.3,171,747,213,800,218.7C853.3,224,907,192,960,197.3C1013.3,203,1067,245,1120,240C1173.3,235,1227,181,1280,160C1333.3,139,1387,149,1413,154.7L1440,160L1440,320L1413.3,320C1386.7,320,1333,320,1280,320C1226.7,320,1173,320,1120,320C1066.7,320,1013,320,960,320C906.7,320,853,320,800,320C746.7,320,693,320,640,320C586.7,320,533,320,480,320C426.7,320,373,320,320,320C266.7,320,213,320,160,320C106.7,320,53,320,27,320L0,320Z"></path></svg>